<svg width="240" height="240" viewBox="0 0 240 240" fill="none" xmlns="http://www.w3.org/2000/svg">
<circle cx="119.562" cy="119.568" r="26" transform="rotate(-90 119.562 119.568)" fill="#FF0A3D"/>
<circle cx="119.562" cy="119.568" r="78.5" transform="rotate(-90 119.562 119.568)" stroke="#D0CBC5"/>
<path d="M138.999 212.468L140.83 224.74L138.804 225.043L136.973 212.77L138.999 212.468ZM138.46 212.548L138.721 214.296L131.692 215.345L131.431 213.597L138.46 212.548ZM125.461 214.253L125.422 226.661L123.373 226.655L123.412 214.247L125.461 214.253ZM124.258 214.249L124.253 215.979L116.469 215.954L116.475 214.225L124.258 214.249ZM124.241 219.758L124.236 221.356L117.355 221.334L117.36 219.736L124.241 219.758ZM124.224 224.946L124.219 226.657L116.455 226.633L116.46 224.922L124.224 224.946ZM107.111 213.522L105.062 225.76L103.023 225.419L105.071 213.181L107.111 213.522ZM109.025 224.632L108.734 226.375L99.3328 224.801L99.6246 223.058L109.025 224.632ZM93.7697 220.243C93.3911 220.733 93.0927 221.194 92.8746 221.626C92.6445 222.055 92.4617 222.478 92.3263 222.896C92.1754 223.322 92.0347 223.757 91.9043 224.202L90.0641 223.663C90.265 222.977 90.4833 222.388 90.719 221.896C90.9548 221.403 91.2012 220.986 91.4583 220.643C91.7154 220.301 91.9567 220.012 92.1821 219.778L93.7697 220.243ZM84.0581 207.072C84.806 207.395 85.4411 207.758 85.9633 208.161C86.469 208.571 86.8586 209.012 87.1321 209.485C87.3891 209.965 87.5243 210.473 87.5376 211.012C87.5344 211.556 87.3979 212.125 87.1279 212.719L85.26 212.444C85.5315 211.879 85.6284 211.354 85.5508 210.87C85.4732 210.386 85.2407 209.945 84.8534 209.545C84.4497 209.152 83.9372 208.822 83.3158 208.553C82.706 208.29 82.1617 208.144 81.6829 208.114C81.2041 208.085 80.8064 208.152 80.49 208.316C80.1571 208.486 79.9186 208.738 79.7745 209.072C79.6105 209.451 79.6136 209.808 79.7838 210.141C79.9375 210.48 80.1999 210.805 80.571 211.116C80.9371 211.437 81.3599 211.77 81.8395 212.114C82.3306 212.463 82.8085 212.826 83.2731 213.204C83.7378 213.582 84.1366 213.987 84.4695 214.417C84.7859 214.854 84.9919 215.325 85.0876 215.831C85.1717 216.331 85.0846 216.881 84.8262 217.479C84.528 218.169 84.0995 218.687 83.5406 219.033C82.9818 219.379 82.3263 219.553 81.5742 219.556C80.8106 219.554 79.9915 219.364 79.1171 218.986C78.2426 218.608 77.5371 218.14 77.0005 217.581C76.4475 217.028 76.0929 216.41 75.9369 215.729C75.7643 215.053 75.8288 214.351 76.1304 213.621L78.0501 213.918C77.8811 214.309 77.8011 214.684 77.81 215.043C77.8073 215.396 77.8846 215.723 78.0417 216.023C78.1989 216.323 78.4244 216.591 78.7183 216.828C79.0073 217.075 79.3646 217.291 79.7903 217.475C80.2851 217.689 80.7489 217.8 81.1817 217.81C81.6095 217.83 81.9816 217.759 82.2981 217.595C82.598 217.438 82.8201 217.193 82.9642 216.859C83.1431 216.445 83.1409 216.055 82.9576 215.689C82.7578 215.33 82.4486 214.971 82.03 214.613C81.6063 214.266 81.1457 213.91 80.6481 213.545C80.1981 213.228 79.7637 212.89 79.3451 212.531C78.9099 212.18 78.5432 211.796 78.2449 211.381C77.935 210.96 77.7437 210.502 77.6711 210.006C77.5869 209.506 77.6765 208.951 77.9399 208.341C78.2281 207.673 78.6574 207.169 79.2278 206.829C79.7867 206.483 80.4709 206.321 81.2806 206.343C82.0852 206.377 83.0111 206.62 84.0581 207.072ZM63.8359 196.253L56.2837 206.097L54.6428 204.839L62.195 194.994L63.8359 196.253ZM60.3128 206.961L59.2371 208.363L51.6744 202.562L52.7501 201.159L60.3128 206.961ZM56.2688 190.35L44.2831 195.735L42.229 193.564L48.2722 181.896L49.7966 183.508L44.3877 193.411L44.5556 193.588L54.7444 188.739L56.2688 190.35ZM52.8437 190.614L51.7511 191.648L46.5448 186.143L47.6375 185.11L52.8437 190.614ZM44.2416 177.28L33.9925 184.274L32.8374 182.581L43.0865 175.587L44.2416 177.28ZM43.9343 176.83L42.4745 177.826L38.4689 171.956L39.9286 170.96L43.9343 176.83ZM36.7512 165.867L25.5175 171.136L24.6473 169.281L29.9067 166.814C29.3923 166.308 28.8232 165.862 28.1993 165.476C27.5587 165.084 26.8967 164.765 26.2133 164.518C25.5245 164.259 24.8336 164.085 24.1407 163.995C23.4477 163.904 22.7889 163.902 22.1644 163.987L21.1825 161.894C21.9024 161.805 22.6285 161.804 23.3608 161.889C24.0932 161.975 24.8124 162.136 25.5186 162.372C26.208 162.603 26.8541 162.888 27.4567 163.228C28.054 163.557 28.5775 163.921 29.0273 164.319L29.2486 164.215C28.9931 163.671 28.838 163.148 28.7833 162.648C28.7119 162.141 28.7298 161.648 28.8372 161.169C28.9445 160.689 29.1442 160.215 29.4363 159.746C29.7231 159.265 30.097 158.778 30.5579 158.285L32.3523 156.488L33.3422 158.599L31.8887 159.883C31.337 160.419 30.9257 160.944 30.6549 161.458C30.3841 161.973 30.261 162.522 30.2856 163.106C30.3102 163.69 30.5035 164.367 30.8654 165.139L31.3364 166.143L35.881 164.012L36.7512 165.867ZM26.1128 134.244L13.8737 136.284L13.5368 134.263L25.7758 132.222L26.1128 134.244ZM27.4607 142.329L15.2216 144.369L14.8847 142.348L27.1237 140.307L27.4607 142.329ZM21.9036 142.15L20.1976 142.434L18.896 134.627L20.6021 134.343L21.9036 142.15ZM25.2003 119.958C25.186 120.861 25.0292 121.66 24.7298 122.358C24.4181 123.042 23.9827 123.624 23.4235 124.104C22.8646 124.572 22.1883 124.925 21.3949 125.163C20.6016 125.388 19.7099 125.493 18.7199 125.477C17.2662 125.454 16.0671 125.191 15.1224 124.687C14.1652 124.183 13.4553 123.501 12.9926 122.641C12.5174 121.782 12.2884 120.806 12.3058 119.716C12.3193 118.864 12.4756 118.096 12.7748 117.411C13.0614 116.726 13.4906 116.144 14.0623 115.664C14.6216 115.171 15.3107 114.8 16.1294 114.55C16.9356 114.299 17.8525 114.182 18.8801 114.199C19.8827 114.215 20.783 114.354 21.581 114.618C22.3666 114.881 23.0311 115.261 23.5748 115.759C24.1184 116.256 24.5288 116.858 24.8059 117.564C25.0832 118.258 25.2147 119.056 25.2003 119.958ZM23.4903 119.894C23.5023 119.142 23.3307 118.5 22.9756 117.968C22.6206 117.436 22.1069 117.026 21.4345 116.74C20.7497 116.453 19.9122 116.302 18.9222 116.286C17.9071 116.27 17.0402 116.401 16.3213 116.678C15.6026 116.942 15.051 117.341 14.6665 117.873C14.2697 118.394 14.0653 119.03 14.0533 119.782C14.0418 120.508 14.2197 121.144 14.5871 121.689C14.9422 122.221 15.4683 122.637 16.1655 122.936C16.8629 123.223 17.7254 123.375 18.753 123.391C19.5049 123.403 20.1767 123.332 20.7683 123.179C21.3473 123.025 21.8397 122.801 22.2455 122.506C22.6388 122.212 22.9454 121.847 23.1654 121.412C23.3731 120.964 23.4814 120.458 23.4903 119.894ZM25.9137 105.874L13.1519 106.047L13.6422 103.883L24.4634 104.023L24.505 103.839L14.7184 99.1347L15.3168 96.4944L26.1713 96.487L26.2128 96.3036L16.4013 91.709L16.8709 89.6371L28.2947 95.3682L27.6547 98.1918L16.8127 98.1443L16.7753 98.3093L26.5702 102.977L25.9137 105.874ZM34.5985 77.4863L33.1017 76.6196L34.9295 73.4634C35.3314 72.7693 35.5071 72.1034 35.4563 71.4657C35.4056 70.828 35.1556 70.2343 34.7064 69.6845C34.2635 69.1238 33.6515 68.6174 32.8706 68.1651C32.1982 67.7757 31.5771 67.5102 31.0074 67.3685C30.4268 67.2206 29.8945 67.202 29.4104 67.3127C28.9325 67.4125 28.4889 67.6408 28.0796 67.9976C27.6656 68.3372 27.2891 68.7999 26.9499 69.3856L25.3577 72.135L23.861 71.2682L25.4249 68.5676C26.1409 67.3312 26.9397 66.4395 27.8212 65.8927C28.7027 65.3459 29.6492 65.112 30.6608 65.1909C31.6616 65.2635 32.7151 65.6201 33.8214 66.2608C34.5806 66.7005 35.2082 67.1798 35.7042 67.6988C36.1894 68.2115 36.561 68.7453 36.819 69.3002C37.0724 69.838 37.2208 70.3946 37.2641 70.9701C37.3137 71.5347 37.2677 72.1018 37.126 72.6716C36.9798 73.2242 36.756 73.7608 36.4545 74.2814L34.5985 77.4863ZM34.0803 78.3811L23.3428 72.163L24.3697 70.3897L35.1072 76.6078L34.0803 78.3811ZM42.8211 63.708L33.0344 56.0804L34.3173 54.4345L44.1039 62.0621L42.8211 63.708ZM52.7258 52.9327C52.0702 53.5709 51.3858 54.0447 50.6726 54.3542C49.9593 54.6637 49.2395 54.8046 48.5131 54.7771C47.7779 54.7406 47.0451 54.5358 46.3144 54.1625C45.5751 53.7803 44.8513 53.2255 44.1432 52.498C43.4263 51.7616 42.8781 51.0097 42.4984 50.2424C42.1278 49.4663 41.9254 48.7013 41.8912 47.9475C41.8483 47.1847 41.9734 46.4507 42.2665 45.7456C42.5596 45.0405 43.016 44.3863 43.6357 43.7831C44.1117 43.3198 44.6173 42.9588 45.1526 42.7001C45.6791 42.4324 46.2086 42.2756 46.741 42.2295C47.2734 42.1835 47.7909 42.257 48.2936 42.4499C48.8051 42.634 49.2796 42.9418 49.717 43.3731L48.6704 45.074C48.2597 44.6342 47.8246 44.3669 47.365 44.2721C46.9056 44.1595 46.4533 44.18 46.0081 44.3336C45.5628 44.4871 45.1651 44.7343 44.8148 45.0753C44.4915 45.39 44.2384 45.7589 44.0554 46.1818C43.8725 46.6048 43.7953 47.0735 43.8238 47.588C43.8525 48.0847 44.0049 48.6185 44.2808 49.1895C44.5657 49.7517 45.0054 50.3382 45.5999 50.9489C46.3605 51.7302 47.0935 52.2586 47.7988 52.534C48.5044 52.7916 49.1729 52.8405 49.8043 52.6806C50.436 52.503 51.0168 52.1563 51.5467 51.6405C52.0765 51.1247 52.3981 50.6106 52.5114 50.098C52.6246 49.5855 52.587 49.0886 52.3985 48.6075C52.2102 48.1086 51.9109 47.6304 51.5005 47.1728L53.0301 46.1298C53.467 46.5966 53.8192 47.1021 54.0866 47.6464C54.3453 48.1817 54.4795 48.7419 54.4894 49.327C54.5082 49.9033 54.3762 50.4954 54.0932 51.1031C53.8103 51.7109 53.3545 52.3207 52.7258 52.9327ZM60.8243 45.0674L53.775 34.8564L55.4614 33.6922L62.5107 43.9032L60.8243 45.0674ZM61.8145 44.3839L60.8318 42.9605L67.237 38.5386L68.2196 39.962L61.8145 44.3839ZM58.685 39.8508L57.7771 38.5357L63.4396 34.6265L64.3475 35.9416L58.685 39.8508ZM55.7371 35.5807L54.7651 34.1728L61.1548 29.7616L62.1267 31.1695L55.7371 35.5807ZM73.1535 32.6761L72.4436 31.161L75.1504 29.8927C76.1378 29.4301 76.7851 28.8915 77.0923 28.277C77.4109 27.6571 77.3628 26.9046 76.948 26.0193C76.5757 25.2249 76.0639 24.738 75.4125 24.5588C74.7724 24.3743 73.9757 24.5054 73.0223 24.9521L70.1623 26.2922L69.4604 24.794L72.3544 23.438C73.0921 23.0924 73.7846 22.8717 74.4318 22.7761C75.0904 22.6751 75.6954 22.6962 76.2469 22.8392C76.8096 22.9769 77.3102 23.2475 77.7484 23.6512C78.1927 24.0382 78.5664 24.5551 78.8696 25.202C79.2684 26.0532 79.4131 26.8643 79.3038 27.6353C79.1891 28.3949 78.8233 29.106 78.2065 29.7688C77.5957 30.4148 76.7342 30.9984 75.622 31.5195L73.1535 32.6761ZM73.6013 36.5563L68.3368 25.3205L70.1924 24.4511L75.4569 35.6869L73.6013 36.5563ZM88.0922 29.9935L84.3716 18.1564L86.3624 17.5307L90.0829 29.3677L88.0922 29.9935ZM96.0403 27.5756L99.098 20.7637L93.9634 15.3427L96.3359 14.9399L100.216 19.3726L100.308 19.3569L102.526 13.8889L104.899 13.4861L101.835 20.2609L107.087 25.7002L104.696 26.1061L100.692 21.6181L100.6 21.6339L98.3942 27.176L96.0403 27.5756ZM113.173 24.9227L113.124 12.5148L115.174 12.5068L115.222 24.9147L113.173 24.9227ZM114.376 24.918L114.369 23.1884L122.152 23.1582L122.159 24.8877L114.376 24.918ZM114.354 19.4097L114.348 17.8117L121.229 17.7849L121.235 19.3829L114.354 19.4097ZM114.334 14.2209L114.328 12.5101L122.092 12.4799L122.099 14.1907L114.334 14.2209ZM128.527 25.099L130.379 12.83L132.405 13.1358L130.553 25.4049L128.527 25.099ZM129.066 25.1804L129.33 23.433L136.356 24.4937L136.093 26.2411L129.066 25.1804ZM155.251 32.1705C154.409 31.8129 153.707 31.3651 153.146 30.8272C152.585 30.2893 152.176 29.6801 151.92 28.9997C151.67 28.3077 151.575 27.5526 151.636 26.7345C151.703 25.9048 151.934 25.0227 152.331 24.0883C152.733 23.1423 153.214 22.3458 153.775 21.6988C154.347 21.0567 154.974 20.574 155.656 20.2508C156.342 19.9161 157.068 19.7474 157.831 19.7449C158.595 19.7423 159.375 19.91 160.171 20.248C160.782 20.5076 161.311 20.8341 161.756 21.2276C162.207 21.6096 162.556 22.0371 162.805 22.5102C163.053 22.9834 163.186 23.489 163.202 24.0271C163.231 24.57 163.13 25.1266 162.902 25.6968L160.929 25.3899C161.175 24.8411 161.253 24.3364 161.163 23.8759C161.089 23.4088 160.895 22.9997 160.581 22.6485C160.267 22.2974 159.885 22.0263 159.435 21.8353C159.02 21.6589 158.582 21.5682 158.121 21.5632C157.66 21.5582 157.198 21.6684 156.735 21.8937C156.288 22.1125 155.855 22.4595 155.435 22.9349C155.027 23.4152 154.656 24.0476 154.323 24.832C153.897 25.8357 153.693 26.716 153.712 27.473C153.748 28.2233 153.962 28.8587 154.353 29.379C154.762 29.8928 155.306 30.2942 155.987 30.5832C156.667 30.8722 157.266 30.9697 157.782 30.8758C158.299 30.7819 158.742 30.555 159.113 30.195C159.5 29.8283 159.825 29.3672 160.088 28.8117L161.642 29.8186C161.381 30.4021 161.051 30.9224 160.652 31.3796C160.259 31.8253 159.794 32.1659 159.259 32.4014C158.734 32.6418 158.137 32.7491 157.468 32.7234C156.798 32.6976 156.059 32.5133 155.251 32.1705ZM164.58 35.9592L174.981 27.9285L177.484 29.5615L174.328 42.3166L172.469 41.1047L175.421 30.2133L175.216 30.0797L166.438 37.1711L164.58 35.9592ZM167.85 34.9042L168.671 33.6445L175.017 37.7835L174.196 39.0432L167.85 34.9042ZM179.298 45.8926L187.851 36.9036L189.812 38.7698L187.646 50.0734L187.769 50.1901L194.348 43.0852L195.791 44.4589L187.238 53.4479L185.454 51.7502L187.65 40.0602L187.528 39.9435L180.742 47.2663L179.298 45.8926ZM197.555 65.5154L208.127 59.02L209.2 60.766L198.628 67.2614L197.555 65.5154ZM197.84 65.98L199.346 65.0549L203.066 71.1097L201.56 72.0348L197.84 65.98ZM204.5 77.2699L215.942 72.4708L216.734 74.3605L205.292 79.1596L204.5 77.2699ZM204.965 78.3794L206.56 77.7105L209.57 84.8879L207.975 85.5569L204.965 78.3794ZM210.045 76.2489L211.518 75.6309L214.18 81.9762L212.706 82.5942L210.045 76.2489ZM214.83 74.2421L216.407 73.5804L219.41 80.7405L217.833 81.4022L214.83 74.2421ZM210.996 94.8614L222.155 87.9814L222.652 90.1627L213.038 95.7846L213.084 95.9862L224.192 96.9266L224.681 99.0713L211.639 97.6843L210.996 94.8614ZM213.702 107.876L226.088 107.133L226.211 109.178L213.825 109.921L213.702 107.876ZM213.774 109.077L215.501 108.973L215.967 116.742L214.24 116.846L213.774 109.077ZM219.273 108.747L220.868 108.651L221.28 115.52L219.685 115.615L219.273 108.747ZM224.452 108.436L226.16 108.334L226.625 116.084L224.917 116.186L224.452 108.436ZM214.388 123.216L226.744 124.36L226.555 126.4L214.2 125.257L214.388 123.216ZM214.338 123.759L216.098 123.922L215.443 130.998L213.683 130.835L214.338 123.759ZM209.891 148.22L213.634 149.534L223.062 148.163L222.264 150.433L215.137 151.098L215.106 151.187L220.253 156.163L219.455 158.433L212.972 151.474L209.212 150.154L209.891 148.22ZM203.051 163.557C203.49 162.768 204.005 162.137 204.598 161.663C205.196 161.207 205.854 160.899 206.574 160.739C207.287 160.59 208.05 160.598 208.862 160.763C209.667 160.938 210.503 161.266 211.369 161.747C212.64 162.453 213.573 163.251 214.168 164.14C214.774 165.036 215.079 165.972 215.081 166.949C215.095 167.931 214.837 168.899 214.307 169.852C213.893 170.597 213.393 171.201 212.806 171.664C212.231 172.132 211.578 172.444 210.847 172.597C210.122 172.767 209.339 172.77 208.499 172.604C207.67 172.445 206.806 172.116 205.908 171.617C205.031 171.13 204.303 170.582 203.724 169.973C203.155 169.371 202.748 168.722 202.504 168.027C202.259 167.332 202.181 166.608 202.27 165.854C202.353 165.111 202.613 164.346 203.051 163.557ZM204.529 164.42C204.163 165.078 204.012 165.725 204.074 166.361C204.136 166.998 204.396 167.601 204.854 168.171C205.323 168.747 205.99 169.275 206.855 169.756C207.743 170.249 208.569 170.543 209.333 170.638C210.092 170.744 210.766 170.652 211.356 170.364C211.952 170.092 212.432 169.628 212.797 168.97C213.15 168.335 213.293 167.69 213.226 167.037C213.164 166.4 212.896 165.785 212.423 165.192C211.943 164.61 211.254 164.07 210.355 163.571C209.698 163.206 209.072 162.951 208.478 162.808C207.895 162.67 207.355 162.636 206.859 162.704C206.373 162.778 205.93 162.955 205.531 163.235C205.137 163.532 204.802 163.927 204.529 164.42ZM193.483 178.217C193.939 177.667 194.405 177.223 194.881 176.885C195.348 176.539 195.828 176.294 196.322 176.151C196.816 176.007 197.309 175.952 197.802 175.987C198.296 176.039 198.789 176.171 199.28 176.383C199.774 176.613 200.261 176.929 200.743 177.329L206.616 182.204L205.295 183.795L199.48 178.968C198.921 178.504 198.382 178.211 197.863 178.09C197.337 177.979 196.825 178.026 196.328 178.233C195.841 178.447 195.369 178.829 194.912 179.379C194.44 179.948 194.144 180.492 194.023 181.01C193.902 181.529 193.948 182.032 194.163 182.519C194.387 183.015 194.778 183.494 195.338 183.959L201.153 188.786L199.844 190.363L193.971 185.487C192.737 184.463 192.07 183.323 191.971 182.068C191.874 180.831 192.378 179.547 193.483 178.217ZM174.546 196.253C175.136 195.849 175.705 195.549 176.255 195.354C176.798 195.149 177.327 195.045 177.842 195.041C178.356 195.038 178.846 195.12 179.31 195.288C179.772 195.473 180.21 195.735 180.624 196.074C181.036 196.43 181.419 196.866 181.773 197.383L186.09 203.678L184.384 204.848L180.11 198.615C179.699 198.015 179.26 197.587 178.795 197.328C178.319 197.077 177.813 196.983 177.279 197.046C176.751 197.119 176.193 197.357 175.604 197.761C174.994 198.18 174.56 198.622 174.302 199.087C174.044 199.553 173.951 200.05 174.024 200.577C174.104 201.115 174.35 201.684 174.761 202.283L179.035 208.516L177.345 209.675L173.029 203.38C172.121 202.057 171.792 200.779 172.04 199.545C172.284 198.328 173.12 197.231 174.546 196.253ZM164.752 207.119L165.45 208.64L162.734 209.887C161.743 210.342 161.091 210.876 160.779 211.488C160.456 212.106 160.499 212.858 160.907 213.747C161.273 214.544 161.781 215.035 162.431 215.219C163.07 215.408 163.867 215.283 164.824 214.844L167.694 213.526L168.385 215.029L165.48 216.363C164.74 216.703 164.046 216.918 163.398 217.009C162.739 217.105 162.134 217.079 161.584 216.932C161.022 216.79 160.523 216.516 160.088 216.109C159.647 215.719 159.277 215.199 158.979 214.55C158.587 213.695 158.448 212.883 158.563 212.113C158.684 211.354 159.055 210.646 159.677 209.988C160.292 209.347 161.158 208.77 162.274 208.257L164.752 207.119ZM164.333 203.236L169.512 214.511L167.65 215.366L162.471 204.091L164.333 203.236ZM150.484 209.156C150.922 209.004 151.287 208.984 151.577 209.095C151.856 209.211 152.066 209.47 152.205 209.872C152.349 210.287 152.341 210.628 152.182 210.895C152.023 211.163 151.73 211.37 151.304 211.518C150.854 211.674 150.484 211.697 150.193 211.585C149.902 211.474 149.685 211.211 149.541 210.797C149.27 210.015 149.584 209.468 150.484 209.156Z" fill="#686868"/>
<path d="M128.203 111.927C128.203 111.374 127.755 110.927 127.203 110.927L118.203 110.927C117.65 110.927 117.203 111.374 117.203 111.927C117.203 112.479 117.65 112.927 118.203 112.927L126.203 112.927L126.203 120.927C126.203 121.479 126.65 121.927 127.203 121.927C127.755 121.927 128.203 121.479 128.203 120.927L128.203 111.927ZM111.921 127.208L112.628 127.916L127.91 112.634L127.203 111.927L126.496 111.22L111.214 126.501L111.921 127.208Z" fill="black"/>
</svg>
