<svg width="32" height="32" viewBox="0 0 32 32" fill="none" xmlns="http://www.w3.org/2000/svg">
<path fill-rule="evenodd" clip-rule="evenodd" d="M5.2569 2.05963C4.38907 1.19181 3.00715 1.16668 2.17032 2.00351C1.33349 2.84034 1.35861 4.22226 2.22644 5.09009L27.368 30.2317C28.2359 31.0995 29.6178 31.1246 30.4546 30.2878C31.2914 29.451 31.2663 28.0691 30.3985 27.2012L5.2569 2.05963Z" fill="black"/>
<path fill-rule="evenodd" clip-rule="evenodd" d="M2.2569 26.9169C1.38907 27.7848 1.36395 29.1667 2.20078 30.0035C3.03761 30.8403 4.41953 30.8152 5.28735 29.9474L30.4289 4.80582C31.2968 3.93796 31.3219 2.55607 30.485 1.71924C29.6482 0.882409 28.2663 0.907503 27.3985 1.77536L2.2569 26.9169Z" fill="black"/>
</svg>
