<svg width="40" height="30" viewBox="0 0 40 30" fill="none" xmlns="http://www.w3.org/2000/svg">
<path fill-rule="evenodd" clip-rule="evenodd" d="M2.22222 0.00195312C0.994933 0.00195312 0 0.961353 0 2.14481C0 3.32827 0.994933 4.28767 2.22222 4.28767H37.7778C39.0051 4.28767 40 3.32827 40 2.14481C40 0.961353 39.0051 0.00195312 37.7778 0.00195312H2.22222ZM8.88889 15.002C8.88889 13.8185 9.88382 12.8591 11.1111 12.8591H37.7778C39.0051 12.8591 40 13.8185 40 15.002C40 16.1855 39.0051 17.1448 37.7778 17.1448H11.1111C9.88382 17.1448 8.88889 16.1855 8.88889 15.002ZM22.2222 27.8591C22.2222 26.6756 23.2171 25.7162 24.4444 25.7162H37.7778C39.0051 25.7162 40 26.6756 40 27.8591C40 29.0426 39.0051 30.002 37.7778 30.002H24.4444C23.2171 30.002 22.2222 29.0426 22.2222 27.8591Z" fill="black"/>
</svg>
