<svg width="248" height="66" viewBox="0 0 248 66" fill="none" xmlns="http://www.w3.org/2000/svg">
<path d="M31.5298 0C40.4728 0 48.0725 3.18011 54.4037 9.54608C60.735 15.9407 63.9149 23.6098 63.9149 32.5818C63.9149 41.5539 60.7981 49.1597 54.53 55.5199C48.3251 61.817 40.7827 65.0316 31.9718 65.1579H12.76C9.3849 65.1579 6.49194 63.9811 4.04096 61.6276C1.58998 59.3028 0.25256 56.4384 0.09758 53.1033C0.03444 52.8794 0 52.6269 0 52.403V12.7606C0 9.23036 1.23984 6.23968 3.72526 3.75414C6.20494 1.2399 9.19548 0 12.6969 0H31.5298ZM12.8232 2.70367C10.022 2.73811 7.6342 3.75414 5.66538 5.7575C3.66212 7.76085 2.67484 10.212 2.67484 13.0419V52.2078C2.67484 55.0722 3.69082 57.5233 5.69982 59.5267C7.70308 61.5645 10.1541 62.5805 12.9839 62.5805H32.3277C30.577 62.5805 28.7 61.8515 26.6967 60.3533C24.085 58.413 22.7821 55.8988 22.7821 52.7818C22.7821 39.2922 22.7476 25.9575 22.6845 12.7549C22.6845 9.98808 21.7316 7.63457 19.7915 5.68861C17.8801 3.71396 15.5611 2.73237 12.8232 2.69793V2.70367ZM39.5314 43.4883C39.2616 43.4883 39.0435 43.7065 39.0435 43.9763C39.0435 44.246 39.2616 44.4642 39.5314 44.4642C39.8012 44.4642 40.0193 44.246 40.0193 43.9763C40.0193 43.7065 39.8012 43.4883 39.5314 43.4883ZM35.8521 41.8064C35.2149 41.8064 34.6983 42.3231 34.6983 42.9602C34.6983 43.5974 35.2149 44.114 35.8521 44.114C36.4892 44.114 37.0058 43.5974 37.0058 42.9602C37.0058 42.3231 36.4892 41.8064 35.8521 41.8064ZM41.5519 43.0291C41.2821 43.0291 41.064 43.2472 41.064 43.517C41.064 43.7868 41.2821 44.005 41.5519 44.005C41.8217 44.005 42.0398 43.7868 42.0398 43.517C42.0398 43.2472 41.8217 43.0291 41.5519 43.0291ZM37.6372 42.9774C37.3674 42.9774 37.1493 43.1956 37.1493 43.4654C37.1493 43.7352 37.3674 43.9533 37.6372 43.9533C37.907 43.9533 38.1251 43.7352 38.1251 43.4654C38.1251 43.1956 37.907 42.9774 37.6372 42.9774ZM42.9984 41.0487C42.3325 41.0487 41.7872 41.5883 41.7872 42.2599C41.7872 42.9315 42.3268 43.4711 42.9984 43.4711C43.6699 43.4711 44.2095 42.9315 44.2095 42.2599C44.2095 41.594 43.6699 41.0487 42.9984 41.0487ZM39.7151 41.0315C39.0952 41.0315 38.5958 41.5366 38.5958 42.1508C38.5958 42.7651 39.1009 43.2702 39.7151 43.2702C40.3293 43.2702 40.8344 42.7651 40.8344 42.1508C40.8344 41.5366 40.3293 41.0315 39.7151 41.0315ZM45.9832 39.9523C45.2886 39.9523 44.7204 40.5149 44.7204 41.2152C44.7204 41.9098 45.2829 42.478 45.9832 42.478C46.6834 42.478 47.246 41.9155 47.246 41.2152C47.246 40.5206 46.6834 39.9523 45.9832 39.9523ZM37.729 39.4357C37.1206 39.4357 36.6327 39.9294 36.6327 40.5321C36.6327 41.1406 37.1263 41.6285 37.729 41.6285C38.3317 41.6285 38.8254 41.1348 38.8254 40.5321C38.8254 39.9294 38.3317 39.4357 37.729 39.4357ZM35.3355 39.7801C34.8418 39.7801 34.44 40.1819 34.44 40.6756C34.44 41.1693 34.8418 41.5711 35.3355 41.5711C35.8291 41.5711 36.2309 41.1693 36.2309 40.6756C36.2309 40.1819 35.8291 39.7801 35.3355 39.7801ZM41.4313 38.345C40.7253 38.345 40.1571 38.9191 40.1571 39.6194C40.1571 40.3197 40.7311 40.8937 41.4313 40.8937C42.1316 40.8937 42.7056 40.3197 42.7056 39.6194C42.7056 38.9191 42.1316 38.345 41.4313 38.345ZM43.8479 39.6481C43.5781 39.6481 43.36 39.8662 43.36 40.136C43.36 40.4058 43.5781 40.6239 43.8479 40.6239C44.1177 40.6239 44.3358 40.4058 44.3358 40.136C44.3358 39.8662 44.1177 39.6481 43.8479 39.6481ZM48.0955 38.0293C47.4067 38.0293 46.8499 38.5861 46.8499 39.275C46.8499 39.9638 47.4067 40.5206 48.0955 40.5206C48.7843 40.5206 49.3411 39.9638 49.3411 39.275C49.3411 38.5861 48.7843 38.0293 48.0955 38.0293ZM39.4453 39.4013C39.164 39.4013 38.9344 39.6309 38.9344 39.9121C38.9344 40.1934 39.164 40.423 39.4453 40.423C39.7266 40.423 39.9562 40.1934 39.9562 39.9121C39.9562 39.6309 39.7266 39.4013 39.4453 39.4013ZM35.9209 37.3175C35.2895 37.3175 34.7729 37.8284 34.7729 38.4656C34.7729 39.1028 35.2838 39.6136 35.9209 39.6136C36.5581 39.6136 37.0689 39.1028 37.0689 38.4656C37.0689 37.8284 36.5581 37.3175 35.9209 37.3175ZM43.8651 37.0879C43.2222 37.0879 42.6941 37.6103 42.6941 38.2589C42.6941 38.9076 43.2165 39.43 43.8651 39.43C44.5137 39.43 45.0361 38.9076 45.0361 38.2589C45.0361 37.6103 44.5137 37.0879 43.8651 37.0879ZM45.9258 38.3106C45.656 38.3106 45.4379 38.5287 45.4379 38.7985C45.4379 39.0683 45.656 39.2864 45.9258 39.2864C46.1955 39.2864 46.4137 39.0683 46.4137 38.7985C46.4137 38.5287 46.1955 38.3106 45.9258 38.3106ZM38.0103 38.0982C37.6946 38.0982 37.442 38.3508 37.442 38.6665C37.442 38.9822 37.6946 39.2348 38.0103 39.2348C38.326 39.2348 38.5786 38.9822 38.5786 38.6665C38.5786 38.3508 38.326 38.0982 38.0103 38.0982ZM39.6232 38.0982C39.3362 38.0982 39.1066 38.3278 39.1066 38.6148C39.1066 38.9018 39.3362 39.1315 39.6232 39.1315C39.9102 39.1315 40.1398 38.9018 40.1398 38.6148C40.1398 38.3278 39.9102 38.0982 39.6232 38.0982ZM49.7945 36.2671C49.1861 36.2671 48.6982 36.7607 48.6982 37.3635C48.6982 37.9662 49.1918 38.4598 49.7945 38.4598C50.3972 38.4598 50.8909 37.9662 50.8909 37.3635C50.8909 36.7607 50.3972 36.2671 49.7945 36.2671ZM40.8401 37.1396C40.5703 37.1396 40.3522 37.3577 40.3522 37.6275C40.3522 37.8973 40.5703 38.1154 40.8401 38.1154C41.1099 38.1154 41.328 37.8973 41.328 37.6275C41.328 37.3577 41.1099 37.1396 40.8401 37.1396ZM46.0922 35.848C45.4723 35.848 44.9672 36.3532 44.9672 36.9731C44.9672 37.5931 45.4723 38.0982 46.0922 38.0982C46.7121 38.0982 47.2173 37.5931 47.2173 36.9731C47.2173 36.3532 46.7121 35.848 46.0922 35.848ZM37.4707 36.9559C37.201 36.9559 36.9828 37.174 36.9828 37.4438C36.9828 37.7136 37.201 37.9317 37.4707 37.9317C37.7405 37.9317 37.9586 37.7136 37.9586 37.4438C37.9586 37.174 37.7405 36.9559 37.4707 36.9559ZM39.2157 35.7045C38.6015 35.7045 38.1079 36.2039 38.1079 36.8124C38.1079 37.4209 38.6073 37.9203 39.2157 37.9203C39.8241 37.9203 40.3293 37.4209 40.3293 36.8124C40.3293 36.2039 39.8299 35.7045 39.2157 35.7045ZM42.0053 34.8894C41.3395 34.8894 40.7942 35.429 40.7942 36.1006C40.7942 36.7722 41.3338 37.3118 42.0053 37.3118C42.6769 37.3118 43.2165 36.7722 43.2165 36.1006C43.2165 35.429 42.6769 34.8894 42.0053 34.8894ZM36.4088 34.6139C35.7315 34.6139 35.1862 35.1592 35.1862 35.8365C35.1862 36.5139 35.7315 37.0592 36.4088 37.0592C37.0862 37.0592 37.6315 36.5139 37.6315 35.8365C37.6315 35.1592 37.0862 34.6139 36.4088 34.6139ZM48.107 34.2694C47.4985 34.2694 47.0106 34.7631 47.0106 35.3658C47.0106 35.9686 47.5043 36.4622 48.107 36.4622C48.7097 36.4622 49.2033 35.9686 49.2033 35.3658C49.2033 34.7631 48.7097 34.2694 48.107 34.2694ZM51.5969 35.1018C51.3041 35.1018 51.0631 35.3429 51.0631 35.6356C51.0631 35.9284 51.3041 36.1695 51.5969 36.1695C51.8896 36.1695 52.1307 35.9284 52.1307 35.6356C52.1307 35.3429 51.8896 35.1018 51.5969 35.1018ZM50.1217 35.0214C49.8519 35.0214 49.6338 35.2396 49.6338 35.5093C49.6338 35.7791 49.8519 35.9973 50.1217 35.9973C50.3915 35.9973 50.6096 35.7791 50.6096 35.5093C50.6096 35.2396 50.3915 35.0214 50.1217 35.0214ZM44.1177 33.2764C43.492 33.2764 42.9811 33.7873 42.9811 34.413C42.9811 35.0386 43.492 35.5495 44.1177 35.5495C44.7433 35.5495 45.2542 35.0386 45.2542 34.413C45.2542 33.7873 44.7433 33.2764 44.1177 33.2764ZM39.9562 33.6725C39.5544 33.6725 39.2272 33.9997 39.2272 34.4015C39.2272 34.8033 39.5544 35.1305 39.9562 35.1305C40.358 35.1305 40.6851 34.8033 40.6851 34.4015C40.6851 33.9997 40.358 33.6725 39.9562 33.6725ZM50.6727 32.6622C50.0586 32.6622 49.5592 33.1616 49.5592 33.7758C49.5592 34.39 50.0586 34.8894 50.6727 34.8894C51.2869 34.8894 51.7863 34.39 51.7863 33.7758C51.7863 33.1616 51.2869 32.6622 50.6727 32.6622ZM37.884 32.4153C37.2584 32.4153 36.7532 32.9205 36.7532 33.5462C36.7532 34.1719 37.2584 34.677 37.884 34.677C38.5097 34.677 39.0148 34.1719 39.0148 33.5462C39.0148 32.9205 38.5097 32.4153 37.884 32.4153ZM46.494 32.3235C45.8511 32.3235 45.3345 32.8459 45.3345 33.483C45.3345 34.1202 45.8569 34.6426 46.494 34.6426C47.1312 34.6426 47.6535 34.1202 47.6535 33.483C47.6535 32.8459 47.1312 32.3235 46.494 32.3235ZM41.5634 32.0135C40.9549 32.0135 40.4555 32.5072 40.4555 33.1214C40.4555 33.7356 40.9492 34.2293 41.5634 34.2293C42.1775 34.2293 42.6712 33.7356 42.6712 33.1214C42.6712 32.5072 42.1775 32.0135 41.5634 32.0135ZM48.79 32.6335C48.4456 32.6335 48.1701 32.909 48.1701 33.2534C48.1701 33.5978 48.4456 33.8734 48.79 33.8734C49.1344 33.8734 49.4099 33.5978 49.4099 33.2534C49.4099 32.909 49.1344 32.6335 48.79 32.6335ZM35.5593 31.5715C34.9451 31.5715 34.4458 32.0709 34.4458 32.6851C34.4458 33.2993 34.9451 33.7987 35.5593 33.7987C36.1735 33.7987 36.6729 33.2993 36.6729 32.6851C36.6729 32.0709 36.1735 31.5715 35.5593 31.5715ZM44.1177 30.8655C43.5092 30.8655 43.0213 31.3591 43.0213 31.9619C43.0213 32.5646 43.515 33.0582 44.1177 33.0582C44.7204 33.0582 45.214 32.5646 45.214 31.9619C45.214 31.3591 44.7204 30.8655 44.1177 30.8655ZM39.0894 30.1364C38.4351 30.1364 37.907 30.6646 37.907 31.3189C37.907 31.9733 38.4351 32.5014 39.0894 32.5014C39.7438 32.5014 40.2719 31.9733 40.2719 31.3189C40.2719 30.6646 39.7438 30.1364 39.0894 30.1364ZM49.0885 30.2283C48.4801 30.2283 47.9922 30.722 47.9922 31.3247C47.9922 31.9274 48.4858 32.4211 49.0885 32.4211C49.6912 32.4211 50.1848 31.9274 50.1848 31.3247C50.1848 30.722 49.6912 30.2283 49.0885 30.2283ZM41.6667 29.086C40.932 29.086 40.335 29.683 40.335 30.4177C40.335 31.1525 40.932 31.7495 41.6667 31.7495C42.4014 31.7495 42.9984 31.1525 42.9984 30.4177C42.9984 29.683 42.4014 29.086 41.6667 29.086ZM37.1436 30.6588C36.8566 30.6588 36.6212 30.8942 36.6212 31.1812C36.6212 31.4682 36.8566 31.7035 37.1436 31.7035C37.4306 31.7035 37.6659 31.4682 37.6659 31.1812C37.6659 30.8942 37.4306 30.6588 37.1436 30.6588ZM51.3501 29.3558C50.7416 29.3558 50.2422 29.8494 50.2422 30.4636C50.2422 31.0779 50.7359 31.5715 51.3501 31.5715C51.9642 31.5715 52.4579 31.0779 52.4579 30.4636C52.4579 29.8494 51.9642 29.3558 51.3501 29.3558ZM35.9324 29.5567C35.5191 29.5567 35.1805 29.8954 35.1805 30.3087C35.1805 30.722 35.5191 31.0606 35.9324 31.0606C36.3457 31.0606 36.6844 30.722 36.6844 30.3087C36.6844 29.8954 36.3457 29.5567 35.9324 29.5567ZM46.7294 28.7875C46.1209 28.7875 45.633 29.2811 45.633 29.8839C45.633 30.4866 46.1267 30.9803 46.7294 30.9803C47.3321 30.9803 47.8257 30.4866 47.8257 29.8839C47.8257 29.2811 47.3321 28.7875 46.7294 28.7875ZM44.353 28.2364C43.7388 28.2364 43.2394 28.7358 43.2394 29.35C43.2394 29.9642 43.7388 30.4636 44.353 30.4636C44.9672 30.4636 45.4666 29.9642 45.4666 29.35C45.4666 28.7358 44.9672 28.2364 44.353 28.2364ZM39.3764 28.3627C38.9402 28.3627 38.59 28.7129 38.59 29.1491C38.59 29.5854 38.9402 29.9355 39.3764 29.9355C39.8127 29.9355 40.1628 29.5854 40.1628 29.1491C40.1628 28.7129 39.8127 28.3627 39.3764 28.3627ZM37.2354 27.605C36.627 27.605 36.1391 28.0986 36.1391 28.7014C36.1391 29.3041 36.6327 29.7978 37.2354 29.7978C37.8381 29.7978 38.3317 29.3041 38.3317 28.7014C38.3317 28.0986 37.8381 27.605 37.2354 27.605ZM48.526 28.0412C48.0955 28.0412 47.7511 28.3914 47.7511 28.8162C47.7511 29.2467 48.1012 29.5911 48.526 29.5911C48.9507 29.5911 49.3009 29.241 49.3009 28.8162C49.3009 28.3857 48.9507 28.0412 48.526 28.0412ZM41.5576 26.6751C40.9492 26.6751 40.4613 27.1687 40.4613 27.7715C40.4613 28.3799 40.9549 28.8678 41.5576 28.8678C42.1603 28.8678 42.654 28.3742 42.654 27.7715C42.654 27.1687 42.1603 26.6751 41.5576 26.6751ZM50.6326 26.3823C50.0126 26.3823 49.5075 26.8874 49.5075 27.5074C49.5075 28.1273 50.0126 28.6325 50.6326 28.6325C51.2525 28.6325 51.7576 28.1273 51.7576 27.5074C51.7576 26.8874 51.2525 26.3823 50.6326 26.3823ZM46.3103 26.3708C45.6904 26.3708 45.191 26.8702 45.191 27.4902C45.191 28.1101 45.6904 28.6095 46.3103 28.6095C46.9303 28.6095 47.4296 28.1101 47.4296 27.4902C47.4296 26.8702 46.9303 26.3708 46.3103 26.3708ZM35.3412 26.6291C34.8418 26.6291 34.44 27.031 34.44 27.5304C34.44 28.0298 34.8418 28.4316 35.3412 28.4316C35.8406 28.4316 36.2424 28.0298 36.2424 27.5304C36.2424 27.031 35.8406 26.6291 35.3412 26.6291ZM39.1296 25.5385C38.4293 25.5385 37.8611 26.1068 37.8611 26.8071C37.8611 27.5074 38.4293 28.0757 39.1296 28.0757C39.8299 28.0757 40.3981 27.5074 40.3981 26.8071C40.3981 26.1068 39.8299 25.5385 39.1296 25.5385ZM48.6236 26.2675C48.2218 26.2675 47.8946 26.5947 47.8946 26.9965C47.8946 27.3983 48.2218 27.7255 48.6236 27.7255C49.0254 27.7255 49.3525 27.3983 49.3525 26.9965C49.3525 26.5947 49.0254 26.2675 48.6236 26.2675ZM44.0029 24.8669C43.3944 24.8669 42.9065 25.3605 42.9065 25.9633C42.9065 26.566 43.4002 27.0597 44.0029 27.0597C44.6056 27.0597 45.0992 26.566 45.0992 25.9633C45.0992 25.3605 44.6056 24.8669 44.0029 24.8669ZM36.5122 23.8279C35.72 23.8279 35.0772 24.4708 35.0772 25.263C35.0772 26.0551 35.72 26.698 36.5122 26.698C37.3043 26.698 37.9472 26.0551 37.9472 25.263C37.9472 24.4708 37.3043 23.8279 36.5122 23.8279ZM41.3682 24.6889C40.8803 24.6889 40.4785 25.085 40.4785 25.5787C40.4785 26.0723 40.8746 26.4684 41.3682 26.4684C41.8618 26.4684 42.2579 26.0723 42.2579 25.5787C42.2579 25.085 41.8618 24.6889 41.3682 24.6889ZM47.533 23.9714C46.9073 23.9714 46.4022 24.4765 46.4022 25.1022C46.4022 25.7279 46.9073 26.2331 47.533 26.2331C48.1586 26.2331 48.6637 25.7279 48.6637 25.1022C48.6637 24.4765 48.1586 23.9714 47.533 23.9714ZM50.0012 23.7705C49.3812 23.7705 48.8761 24.2756 48.8761 24.8956C48.8761 25.5155 49.3812 26.0207 50.0012 26.0207C50.6211 26.0207 51.1262 25.5155 51.1262 24.8956C51.1262 24.2756 50.6211 23.7705 50.0012 23.7705ZM45.7249 24.9243C45.4551 24.9243 45.237 25.1424 45.237 25.4122C45.237 25.682 45.4551 25.9001 45.7249 25.9001C45.9946 25.9001 46.2128 25.682 46.2128 25.4122C46.2128 25.1424 45.9946 24.9243 45.7249 24.9243ZM39.2444 23.1276C38.636 23.1276 38.1481 23.6212 38.1481 24.224C38.1481 24.8267 38.6417 25.3204 39.2444 25.3204C39.8471 25.3204 40.3407 24.8267 40.3407 24.224C40.3407 23.6212 39.8471 23.1276 39.2444 23.1276ZM41.5232 22.1345C40.886 22.1345 40.3752 22.6511 40.3752 23.2826C40.3752 23.914 40.8918 24.4306 41.5232 24.4306C42.1546 24.4306 42.6712 23.914 42.6712 23.2826C42.6712 22.6511 42.1546 22.1345 41.5232 22.1345ZM47.9979 21.5146C47.3665 21.5146 46.8556 22.0254 46.8556 22.6569C46.8556 23.2883 47.3665 23.7992 47.9979 23.7992C48.6293 23.7992 49.1402 23.2883 49.1402 22.6569C49.1402 22.0254 48.6293 21.5146 47.9979 21.5146ZM44.353 21.2907C43.6642 21.2907 43.1074 21.8475 43.1074 22.5363C43.1074 23.2252 43.6642 23.782 44.353 23.782C45.0418 23.782 45.5986 23.2252 45.5986 22.5363C45.5986 21.8475 45.0418 21.2907 44.353 21.2907ZM36.3514 21.1816C35.7258 21.1816 35.2149 21.6925 35.2149 22.3182C35.2149 22.9439 35.7258 23.4548 36.3514 23.4548C36.9771 23.4548 37.488 22.9496 37.488 22.3182C37.488 21.6925 36.9771 21.1816 36.3514 21.1816ZM38.4523 19.9475C37.8438 19.9475 37.3559 20.4411 37.3559 21.0439C37.3559 21.6466 37.8496 22.1402 38.4523 22.1402C39.055 22.1402 39.5486 21.6466 39.5486 21.0439C39.5486 20.4354 39.055 19.9475 38.4523 19.9475ZM46.4022 20.7281C46.0348 20.7281 45.7306 21.0266 45.7306 21.3997C45.7306 21.7729 46.0291 22.0714 46.4022 22.0714C46.7753 22.0714 47.0738 21.7729 47.0738 21.3997C47.0738 21.0266 46.7753 20.7281 46.4022 20.7281ZM42.3555 19.8327C41.747 19.8327 41.2591 20.3263 41.2591 20.929C41.2591 21.5318 41.7528 22.0254 42.3555 22.0254C42.9582 22.0254 43.4518 21.5318 43.4518 20.929C43.4518 20.3263 42.9582 19.8327 42.3555 19.8327ZM44.5482 19.8728C44.221 19.8728 43.9512 20.1369 43.9512 20.4698C43.9512 20.8028 44.2152 21.0668 44.5482 21.0668C44.8811 21.0668 45.1451 20.8028 45.1451 20.4698C45.1451 20.1369 44.8811 19.8728 44.5482 19.8728ZM36.0357 19.1036C35.5191 19.1036 35.1001 19.5227 35.1001 20.0393C35.1001 20.5559 35.5191 20.975 36.0357 20.975C36.5523 20.975 36.9714 20.5559 36.9714 20.0393C36.9714 19.5227 36.5523 19.1036 36.0357 19.1036ZM40.6105 19.913C40.3293 19.913 40.1054 20.1369 40.1054 20.4182C40.1054 20.6994 40.3293 20.9233 40.6105 20.9233C40.8918 20.9233 41.1156 20.6994 41.1156 20.4182C41.1156 20.1369 40.8918 19.913 40.6105 19.913Z" fill="black"/>
<path d="M89.6139 14.0586C95.9107 14.0586 99.5614 17.1296 99.5614 23.3177V41.8415C99.5614 48.0869 95.9107 51.1006 89.6139 51.1006H81.3885C80.5505 51.1006 79.8789 50.4232 79.8789 49.5909V15.5683C79.8789 14.7302 80.5562 14.0586 81.3885 14.0586H89.6139ZM88.6439 42.8461H89.5565C90.033 42.8461 90.033 42.7427 90.033 42.0023V23.1627C90.033 22.4222 90.033 22.3131 89.5565 22.3131H88.6439V42.8461Z" fill="black"/>
<path d="M111.577 15.5683V49.5909C111.577 50.429 110.9 51.1006 110.068 51.1006H103.564C102.726 51.1006 102.055 50.4232 102.055 49.5909V15.5683C102.055 14.7302 102.732 14.0586 103.564 14.0586H110.068C110.906 14.0586 111.577 14.7359 111.577 15.5683Z" fill="black"/>
<path d="M122.931 42.2548C122.931 42.8231 123.43 43.0757 123.637 43.0757C123.843 43.0757 124.216 42.8174 124.216 42.2548V34.6088C124.216 33.7707 124.894 33.0991 125.726 33.0991H131.96C132.798 33.0991 133.469 33.7764 133.469 34.6088V41.5315C133.469 47.6564 129.922 51.1006 123.746 51.1006C117.569 51.1006 114.332 47.754 114.332 41.5315V23.576C114.332 17.3535 117.678 14.0586 123.746 14.0586C129.813 14.0586 133.469 17.5028 133.469 23.576V30.5504C133.469 31.3885 132.792 32.0601 131.96 32.0601H125.726C124.888 32.0601 124.216 31.3827 124.216 30.5504V22.9044C124.216 22.2901 123.843 22.0835 123.637 22.0835C123.43 22.0835 122.931 22.2901 122.931 22.9044V42.2491V42.2548Z" fill="black"/>
<path d="M145.757 23.1397V26.6126C145.757 27.0718 146.13 27.4392 146.584 27.4392H148.478C149.316 27.4392 149.987 28.1165 149.987 28.9489V34.1783C149.987 35.0163 149.31 35.688 148.478 35.688H146.584C146.124 35.688 145.757 36.0611 145.757 36.5146V42.0023C145.757 42.4615 146.13 42.8289 146.584 42.8289H148.478C149.316 42.8289 149.987 43.5062 149.987 44.3385V49.5679C149.987 50.406 149.31 51.0776 148.478 51.0776H137.744C136.906 51.0776 136.234 50.4003 136.234 49.5679V15.5683C136.234 14.7302 136.912 14.0586 137.744 14.0586H148.478C149.316 14.0586 149.987 14.7359 149.987 15.5683V20.7977C149.987 21.6358 149.31 22.3074 148.478 22.3074H146.584C146.124 22.3074 145.757 22.6805 145.757 23.134V23.1397Z" fill="black"/>
<path d="M170.907 14.0586C177.255 14.0586 180.854 18.1859 180.854 27.4449V27.5482C180.854 37.1288 177.628 40.1941 170.798 40.1941H170.695V49.5852C170.695 50.4232 170.017 51.0948 169.185 51.0948H162.681C161.843 51.0948 161.172 50.4175 161.172 49.5852V15.5683C161.172 14.7302 161.849 14.0586 162.681 14.0586H170.907ZM170.224 31.9453H171.01C171.538 31.9453 171.538 31.842 171.538 31.0957V23.1569C171.538 22.4164 171.538 22.3074 171.01 22.3074H170.224V31.9395V31.9453Z" fill="black"/>
<path d="M192.655 15.5683V49.5909C192.655 50.429 191.978 51.1006 191.146 51.1006H184.642C183.804 51.1006 183.133 50.4232 183.133 49.5909V15.5683C183.133 14.7302 183.81 14.0586 184.642 14.0586H191.146C191.984 14.0586 192.655 14.7359 192.655 15.5683Z" fill="black"/>
<path d="M204.661 28.3978H205.838V15.5683C205.838 14.7302 206.515 14.0586 207.347 14.0586H213.851C214.746 14.0586 215.441 14.8278 215.355 15.7175L213.73 32.5423C213.719 32.6399 213.719 32.7374 213.73 32.835L215.355 49.4474C215.441 50.3371 214.741 51.1063 213.851 51.1063H207.302C206.463 51.1063 205.792 50.429 205.792 49.5966V36.6638H204.667V49.5966C204.667 50.4347 203.99 51.1063 203.157 51.1063H196.66C195.764 51.1063 195.07 50.3371 195.156 49.4474L196.78 32.835C196.792 32.7374 196.792 32.6399 196.78 32.5423L195.156 15.7175C195.07 14.8278 195.77 14.0586 196.66 14.0586H203.157C203.995 14.0586 204.667 14.7359 204.667 15.5683V28.3978H204.661Z" fill="black"/>
<path d="M243.613 15.5683V41.3306C243.613 42.1687 244.29 42.8403 245.122 42.8403H246.333C247.171 42.8403 247.843 43.5177 247.843 44.35V49.5794C247.843 50.4175 247.166 51.0891 246.333 51.0891H235.599C234.761 51.0891 234.09 50.4118 234.09 49.5794V15.5683C234.09 14.7302 234.767 14.0586 235.599 14.0586H242.097C242.935 14.0586 243.607 14.7359 243.607 15.5683H243.613Z" fill="black"/>
<path d="M227.374 23.1397V26.6126C227.374 27.0718 227.747 27.4392 228.201 27.4392H230.095C230.933 27.4392 231.605 28.1165 231.605 28.9489V34.1783C231.605 35.0163 230.927 35.688 230.095 35.688H228.201C227.742 35.688 227.374 36.0611 227.374 36.5146V42.0023C227.374 42.4615 227.747 42.8289 228.201 42.8289H230.095C230.933 42.8289 231.605 43.5062 231.605 44.3385V49.5679C231.605 50.406 230.927 51.0776 230.095 51.0776H219.361C218.523 51.0776 217.852 50.4003 217.852 49.5679V15.5683C217.852 14.7302 218.529 14.0586 219.361 14.0586H230.095C230.933 14.0586 231.605 14.7359 231.605 15.5683V20.7977C231.605 21.6358 230.927 22.3074 230.095 22.3074H228.201C227.742 22.3074 227.374 22.6805 227.374 23.134V23.1397Z" fill="black"/>
</svg>
