<svg width="240" height="240" viewBox="0 0 240 240" fill="none" xmlns="http://www.w3.org/2000/svg">
<circle cx="119.562" cy="119.568" r="26" transform="rotate(-90 119.562 119.568)" fill="#FF0A3D"/>
<circle cx="119.562" cy="119.568" r="78.5" transform="rotate(-90 119.562 119.568)" stroke="#D0CBC5"/>
<path d="M138.999 212.468L140.83 224.74L138.804 225.043L136.973 212.771L138.999 212.468ZM138.46 212.549L138.721 214.296L131.692 215.345L131.431 213.597L138.46 212.549ZM125.461 214.253L125.422 226.661L123.373 226.655L123.412 214.247L125.461 214.253ZM124.258 214.249L124.253 215.979L116.469 215.954L116.475 214.225L124.258 214.249ZM124.241 219.758L124.236 221.356L117.355 221.334L117.36 219.736L124.241 219.758ZM124.224 224.947L124.219 226.657L116.455 226.633L116.46 224.922L124.224 224.947ZM107.111 213.522L105.062 225.76L103.023 225.419L105.071 213.181L107.111 213.522ZM109.025 224.632L108.734 226.375L99.3329 224.801L99.6246 223.058L109.025 224.632ZM93.7698 220.243C93.3912 220.733 93.0928 221.194 92.8747 221.626C92.6445 222.055 92.4618 222.478 92.3264 222.896C92.1754 223.322 92.0348 223.757 91.9044 224.202L90.0642 223.663C90.265 222.977 90.4834 222.388 90.7191 221.896C90.9548 221.403 91.2013 220.986 91.4584 220.643C91.7155 220.301 91.9567 220.012 92.1821 219.778L93.7698 220.243ZM84.0582 207.072C84.8061 207.395 85.4411 207.758 85.9633 208.161C86.469 208.571 86.8587 209.012 87.1322 209.485C87.3892 209.965 87.5244 210.474 87.5377 211.012C87.5345 211.556 87.3979 212.126 87.128 212.719L85.2601 212.445C85.5316 211.879 85.6285 211.354 85.5508 210.87C85.4732 210.386 85.2408 209.945 84.8535 209.545C84.4498 209.152 83.9372 208.822 83.3159 208.554C82.7061 208.29 82.1618 208.144 81.6829 208.114C81.2041 208.085 80.8065 208.152 80.4901 208.316C80.1571 208.486 79.9186 208.738 79.7745 209.072C79.6105 209.452 79.6136 209.808 79.7839 210.141C79.9376 210.48 80.2 210.805 80.5711 211.116C80.9371 211.438 81.36 211.77 81.8396 212.114C82.3306 212.463 82.8085 212.826 83.2732 213.204C83.7379 213.582 84.1366 213.987 84.4695 214.417C84.7859 214.854 84.9919 215.325 85.0876 215.831C85.1718 216.331 85.0847 216.881 84.8263 217.479C84.5281 218.17 84.0996 218.688 83.5407 219.033C82.9818 219.379 82.3263 219.553 81.5742 219.556C80.8106 219.554 79.9916 219.364 79.1171 218.986C78.2427 218.609 77.5372 218.14 77.0006 217.581C76.4475 217.028 76.093 216.41 75.9369 215.729C75.7644 215.053 75.8289 214.351 76.1305 213.621L78.0502 213.918C77.8812 214.309 77.8012 214.684 77.81 215.043C77.8074 215.397 77.8846 215.723 78.0418 216.023C78.1989 216.323 78.4245 216.591 78.7184 216.828C79.0073 217.075 79.3647 217.291 79.7904 217.475C80.2851 217.689 80.7489 217.8 81.1817 217.81C81.6095 217.831 81.9817 217.759 82.2981 217.596C82.5981 217.438 82.8201 217.193 82.9642 216.859C83.1431 216.445 83.1409 216.055 82.9576 215.689C82.7579 215.33 82.4487 214.971 82.03 214.613C81.6064 214.266 81.1458 213.91 80.6482 213.545C80.1981 213.228 79.7638 212.89 79.3451 212.532C78.91 212.18 78.5433 211.796 78.2449 211.381C77.9351 210.96 77.7438 210.502 77.6711 210.006C77.587 209.506 77.6766 208.951 77.94 208.341C78.2282 207.674 78.6575 207.17 79.2279 206.829C79.7867 206.483 80.471 206.321 81.2806 206.343C82.0853 206.377 83.0111 206.62 84.0582 207.072ZM63.8359 196.253L56.2837 206.098L54.6429 204.839L62.1951 194.994L63.8359 196.253ZM60.3128 206.961L59.2372 208.363L51.6745 202.562L52.7501 201.16L60.3128 206.961ZM56.2689 190.35L44.2832 195.735L42.2291 193.564L48.2722 181.896L49.7966 183.508L44.3877 193.411L44.5557 193.589L54.7445 188.739L56.2689 190.35ZM52.8438 190.614L51.7511 191.648L46.5449 186.143L47.6375 185.11L52.8438 190.614ZM44.2416 177.28L33.9926 184.274L32.8375 182.581L43.0866 175.587L44.2416 177.28ZM43.9343 176.83L42.4746 177.826L38.469 171.956L39.9287 170.96L43.9343 176.83ZM36.7512 165.867L25.5176 171.136L24.6474 169.281L29.9067 166.814C29.3924 166.308 28.8233 165.862 28.1994 165.476C27.5588 165.084 26.8968 164.765 26.2133 164.518C25.5246 164.259 24.8337 164.085 24.1407 163.995C23.4477 163.905 22.789 163.902 22.1645 163.987L21.1825 161.894C21.9024 161.805 22.6285 161.804 23.3609 161.89C24.0932 161.975 24.8125 162.136 25.5186 162.373C26.2081 162.603 26.8541 162.888 27.4568 163.229C28.054 163.558 28.5776 163.921 29.0274 164.319L29.2486 164.215C28.9932 163.671 28.838 163.148 28.7833 162.648C28.7119 162.141 28.7299 161.649 28.8372 161.169C28.9446 160.69 29.1443 160.215 29.4364 159.746C29.7232 159.265 30.097 158.778 30.5579 158.285L32.3523 156.489L33.3423 158.599L31.8887 159.883C31.3371 160.419 30.9258 160.944 30.655 161.458C30.3842 161.973 30.2611 162.522 30.2857 163.106C30.3103 163.69 30.5035 164.367 30.8655 165.139L31.3365 166.143L35.881 164.012L36.7512 165.867ZM26.1129 134.244L13.8738 136.284L13.5368 134.263L25.7759 132.222L26.1129 134.244ZM27.4608 142.329L15.2217 144.369L14.8847 142.348L27.1238 140.308L27.4608 142.329ZM21.9037 142.15L20.1976 142.434L18.8961 134.627L20.6022 134.343L21.9037 142.15ZM25.2004 119.959C25.1861 120.861 25.0292 121.661 24.7299 122.358C24.4181 123.042 23.9827 123.624 23.4236 124.104C22.8646 124.572 22.1884 124.925 21.3949 125.163C20.6016 125.388 19.71 125.493 18.72 125.478C17.2663 125.455 16.0671 125.191 15.1225 124.687C14.1653 124.183 13.4553 123.501 12.9927 122.642C12.5175 121.782 12.2885 120.807 12.3058 119.716C12.3193 118.864 12.4757 118.096 12.7749 117.411C13.0615 116.726 13.4907 116.144 14.0623 115.664C14.6217 115.172 15.3107 114.8 16.1295 114.55C16.9357 114.299 17.8526 114.182 18.8802 114.199C19.8827 114.215 20.783 114.354 21.5811 114.618C22.3666 114.881 23.0312 115.261 23.5748 115.759C24.1185 116.256 24.5288 116.858 24.8059 117.564C25.0832 118.258 25.2147 119.056 25.2004 119.959ZM23.4904 119.894C23.5023 119.142 23.3308 118.5 22.9757 117.968C22.6206 117.436 22.1069 117.026 21.4346 116.74C20.7497 116.453 19.9123 116.302 18.9223 116.286C17.9072 116.27 17.0402 116.401 16.3213 116.678C15.6027 116.942 15.0511 117.341 14.6666 117.873C14.2697 118.394 14.0653 119.03 14.0534 119.782C14.0419 120.508 14.2198 121.144 14.5872 121.689C14.9423 122.221 15.4684 122.637 16.1656 122.936C16.863 123.223 17.7255 123.375 18.7531 123.391C19.505 123.403 20.1767 123.332 20.7683 123.179C21.3474 123.025 21.8398 122.801 22.2456 122.506C22.6388 122.212 22.9455 121.847 23.1655 121.412C23.3731 120.964 23.4814 120.458 23.4904 119.894ZM25.9137 105.874L13.1519 106.047L13.6422 103.884L24.4635 104.023L24.505 103.839L14.7185 99.1348L15.3168 96.4945L26.1713 96.4871L26.2129 96.3037L16.4014 91.7091L16.8709 89.6372L28.2947 95.3683L27.6548 98.1919L16.8128 98.1444L16.7754 98.3094L26.5703 102.977L25.9137 105.874ZM34.5985 77.4864L33.1018 76.6197L34.9295 73.4635C35.3315 72.7694 35.5071 72.1034 35.4564 71.4658C35.4057 70.8281 35.1557 70.2343 34.7065 69.6845C34.2635 69.1239 33.6516 68.6174 32.8707 68.1652C32.1982 67.7758 31.5772 67.5103 31.0074 67.3686C30.4269 67.2207 29.8945 67.2021 29.4104 67.3128C28.9326 67.4126 28.489 67.6409 28.0796 67.9977C27.6657 68.3373 27.2891 68.8 26.95 69.3856L25.3578 72.1351L23.861 71.2683L25.425 68.5677C26.141 67.3312 26.9398 66.4396 27.8213 65.8928C28.7028 65.346 29.6493 65.1121 30.6609 65.191C31.6616 65.2636 32.7151 65.6202 33.8214 66.2609C34.5806 66.7005 35.2083 67.1799 35.7043 67.6989C36.1895 68.2116 36.5611 68.7454 36.819 69.3003C37.0724 69.8381 37.2208 70.3947 37.2641 70.9702C37.3137 71.5348 37.2677 72.1019 37.1261 72.6717C36.9799 73.2242 36.756 73.7608 36.4545 74.2815L34.5985 77.4864ZM34.0803 78.3812L23.3429 72.1631L24.3698 70.3898L35.1073 76.6079L34.0803 78.3812ZM42.8211 63.7081L33.0345 56.0805L34.3173 54.4345L44.1039 62.0622L42.8211 63.7081ZM52.7259 52.9328C52.0703 53.571 51.3858 54.0448 50.6726 54.3543C49.9594 54.6637 49.2396 54.8047 48.5132 54.7772C47.778 54.7407 47.0451 54.5359 46.3145 54.1626C45.5751 53.7804 44.8514 53.2256 44.1433 52.4981C43.4264 51.7617 42.8781 51.0098 42.4985 50.2425C42.1278 49.4664 41.9254 48.7014 41.8912 47.9476C41.8483 47.1848 41.9734 46.4508 42.2666 45.7457C42.5597 45.0406 43.0161 44.3864 43.6358 43.7832C44.1118 43.3199 44.6174 42.9588 45.1527 42.7002C45.6792 42.4325 46.2087 42.2756 46.7411 42.2296C47.2735 42.1836 47.791 42.2571 48.2936 42.45C48.8052 42.6341 49.2797 42.9419 49.717 43.3732L48.6704 45.0741C48.2598 44.6343 47.8246 44.367 47.365 44.2721C46.9057 44.1596 46.4534 44.1801 46.0081 44.3336C45.5629 44.4872 45.1652 44.7344 44.8149 45.0754C44.4916 45.3901 44.2384 45.7589 44.0555 46.1819C43.8725 46.6049 43.7953 47.0736 43.8238 47.588C43.8526 48.0848 44.0049 48.6186 44.2809 49.1896C44.5658 49.7518 45.0055 50.3383 45.6 50.949C46.3605 51.7303 47.0935 52.2587 47.7989 52.5341C48.5044 52.7917 49.173 52.8406 49.8044 52.6807C50.4361 52.5031 51.0169 52.1564 51.5467 51.6406C52.0766 51.1248 52.3982 50.6106 52.5114 50.0981C52.6247 49.5856 52.5871 49.0887 52.3986 48.6076C52.2103 48.1087 51.9109 47.6305 51.5005 47.1729L53.0302 46.1299C53.4671 46.5967 53.8192 47.1022 54.0866 47.6465C54.3453 48.1818 54.4796 48.7419 54.4894 49.327C54.5083 49.9034 54.3762 50.4955 54.0933 51.1032C53.8103 51.711 53.3545 52.3208 52.7259 52.9328ZM60.8244 45.0675L53.775 34.8565L55.4614 33.6923L62.5107 43.9033L60.8244 45.0675ZM61.8145 44.3839L60.8319 42.9606L67.237 38.5387L68.2196 39.9621L61.8145 44.3839ZM58.6851 39.8509L57.7772 38.5358L63.4397 34.6266L64.3475 35.9417L58.6851 39.8509ZM55.7372 35.5808L54.7652 34.1729L61.1548 29.7617L62.1268 31.1696L55.7372 35.5808ZM73.1536 32.6762L72.4436 31.1611L75.1505 29.8928C76.1378 29.4302 76.7851 28.8916 77.0924 28.2771C77.4109 27.6572 77.3628 26.9046 76.948 26.0194C76.5758 25.225 76.064 24.7381 75.4125 24.5589C74.7724 24.3744 73.9757 24.5055 73.0224 24.9522L70.1624 26.2922L69.4604 24.7941L72.3545 23.4381C73.0922 23.0925 73.7847 22.8718 74.4319 22.7762C75.0905 22.6752 75.6955 22.6962 76.2469 22.8392C76.8097 22.9769 77.3102 23.2476 77.7485 23.6513C78.1928 24.0382 78.5665 24.5552 78.8696 25.2021C79.2684 26.0533 79.4132 26.8644 79.3038 27.6353C79.1891 28.395 78.8234 29.1061 78.2066 29.7688C77.5958 30.4149 76.7343 30.9985 75.622 31.5196L73.1536 32.6762ZM73.6014 36.5564L68.3368 25.3206L70.1924 24.4511L75.457 35.6869L73.6014 36.5564ZM88.0922 29.9935L84.3717 18.1565L86.3625 17.5308L90.083 29.3678L88.0922 29.9935ZM96.0403 27.5757L99.0981 20.7638L93.9635 15.3428L96.3359 14.94L100.216 19.3727L100.308 19.357L102.527 13.889L104.899 13.4862L101.835 20.261L107.087 25.7003L104.696 26.1062L100.692 21.6182L100.6 21.634L98.3942 27.1761L96.0403 27.5757ZM113.173 24.9228L113.124 12.5149L115.174 12.5069L115.222 24.9148L113.173 24.9228ZM114.376 24.9181L114.369 23.1885L122.152 23.1582L122.159 24.8878L114.376 24.9181ZM114.354 19.4098L114.348 17.8118L121.229 17.785L121.235 19.383L114.354 19.4098ZM114.334 14.221L114.328 12.5102L122.092 12.48L122.099 14.1908L114.334 14.221ZM128.527 25.0991L130.379 12.8301L132.405 13.1359L130.553 25.4049L128.527 25.0991ZM129.066 25.1805L129.33 23.4331L136.357 24.4937L136.093 26.2411L129.066 25.1805ZM155.251 32.1705C154.409 31.813 153.708 31.3652 153.146 30.8273C152.585 30.2894 152.176 29.6802 151.921 28.9997C151.67 28.3077 151.575 27.5527 151.636 26.7345C151.703 25.9049 151.934 25.0228 152.331 24.0884C152.733 23.1424 153.214 22.3459 153.775 21.6989C154.347 21.0568 154.974 20.5741 155.656 20.2509C156.342 19.9162 157.068 19.7475 157.831 19.7449C158.595 19.7424 159.375 19.9101 160.171 20.2481C160.782 20.5077 161.311 20.8342 161.756 21.2277C162.207 21.6096 162.556 22.0372 162.805 22.5103C163.053 22.9834 163.186 23.4891 163.202 24.0271C163.231 24.5701 163.13 25.1267 162.902 25.6969L160.929 25.39C161.175 24.8412 161.253 24.3365 161.163 23.876C161.089 23.4089 160.895 22.9997 160.581 22.6486C160.267 22.2975 159.885 22.0264 159.435 21.8354C159.02 21.659 158.582 21.5683 158.121 21.5633C157.66 21.5583 157.198 21.6684 156.735 21.8938C156.288 22.1125 155.855 22.4596 155.435 22.935C155.027 23.4153 154.656 24.0476 154.323 24.8321C153.897 25.8358 153.694 26.7161 153.713 27.4731C153.748 28.2234 153.962 28.8588 154.353 29.3791C154.762 29.8929 155.306 30.2942 155.987 30.5832C156.667 30.8722 157.266 30.9698 157.782 30.8759C158.299 30.782 158.742 30.5551 159.113 30.195C159.5 29.8284 159.825 29.3673 160.088 28.8118L161.642 29.8187C161.381 30.4022 161.051 30.9225 160.652 31.3797C160.259 31.8254 159.794 32.166 159.259 32.4015C158.735 32.6419 158.137 32.7492 157.468 32.7235C156.798 32.6977 156.059 32.5134 155.251 32.1705ZM164.58 35.9593L174.981 27.9286L177.484 29.5616L174.328 42.3166L172.469 41.1047L175.421 30.2133L175.216 30.0798L166.438 37.1712L164.58 35.9593ZM167.85 34.9043L168.671 33.6446L175.017 37.7836L174.196 39.0433L167.85 34.9043ZM179.298 45.8927L187.851 36.9037L189.812 38.7698L187.646 50.0735L187.769 50.1902L194.348 43.0853L195.791 44.459L187.238 53.448L185.454 51.7503L187.65 40.0603L187.528 39.9436L180.742 47.2664L179.298 45.8927ZM197.555 65.5155L208.127 59.0201L209.2 60.7661L198.628 67.2615L197.555 65.5155ZM197.84 65.98L199.346 65.0549L203.066 71.1098L201.56 72.0349L197.84 65.98ZM204.5 77.2699L215.942 72.4709L216.735 74.3606L205.292 79.1597L204.5 77.2699ZM204.965 78.3795L206.56 77.7106L209.57 84.888L207.975 85.557L204.965 78.3795ZM210.045 76.249L211.518 75.631L214.18 81.9763L212.706 82.5943L210.045 76.249ZM214.83 74.2421L216.407 73.5805L219.41 80.7406L217.833 81.4023L214.83 74.2421ZM210.996 94.8615L222.155 87.9814L222.652 90.1628L213.038 95.7847L213.084 95.9863L224.192 96.9267L224.681 99.0714L211.639 97.6844L210.996 94.8615ZM213.702 107.876L226.088 107.133L226.211 109.178L213.825 109.921L213.702 107.876ZM213.774 109.077L215.501 108.973L215.967 116.742L214.24 116.846L213.774 109.077ZM219.273 108.747L220.868 108.651L221.28 115.52L219.685 115.615L219.273 108.747ZM224.452 108.436L226.16 108.334L226.625 116.084L224.917 116.187L224.452 108.436ZM214.388 123.216L226.744 124.36L226.555 126.4L214.2 125.257L214.388 123.216ZM214.338 123.759L216.098 123.922L215.443 130.998L213.683 130.835L214.338 123.759ZM209.891 148.22L213.634 149.535L223.062 148.163L222.265 150.433L215.137 151.099L215.106 151.187L220.253 156.163L219.455 158.433L212.972 151.474L209.212 150.154L209.891 148.22ZM203.051 163.557C203.49 162.768 204.005 162.137 204.598 161.663C205.196 161.207 205.854 160.899 206.574 160.739C207.287 160.591 208.05 160.598 208.862 160.763C209.667 160.938 210.503 161.266 211.369 161.747C212.64 162.453 213.573 163.251 214.168 164.141C214.774 165.036 215.079 165.973 215.081 166.949C215.095 167.931 214.837 168.899 214.307 169.852C213.893 170.597 213.393 171.201 212.806 171.664C212.231 172.133 211.578 172.444 210.847 172.597C210.122 172.767 209.339 172.77 208.499 172.604C207.67 172.445 206.806 172.116 205.908 171.617C205.031 171.13 204.303 170.582 203.724 169.973C203.155 169.371 202.749 168.722 202.504 168.027C202.259 167.332 202.181 166.608 202.27 165.854C202.353 165.111 202.613 164.346 203.051 163.557ZM204.529 164.42C204.163 165.078 204.012 165.725 204.074 166.362C204.136 166.998 204.396 167.601 204.854 168.171C205.323 168.747 205.99 169.275 206.855 169.756C207.743 170.249 208.569 170.543 209.333 170.638C210.092 170.744 210.766 170.652 211.357 170.364C211.952 170.092 212.432 169.628 212.797 168.97C213.15 168.335 213.293 167.69 213.226 167.037C213.164 166.4 212.896 165.785 212.423 165.192C211.943 164.611 211.254 164.07 210.355 163.571C209.698 163.206 209.072 162.951 208.478 162.808C207.895 162.67 207.355 162.636 206.859 162.704C206.373 162.778 205.93 162.955 205.531 163.235C205.137 163.532 204.803 163.927 204.529 164.42ZM193.483 178.217C193.939 177.667 194.405 177.223 194.881 176.885C195.348 176.539 195.828 176.295 196.322 176.151C196.816 176.007 197.309 175.952 197.802 175.987C198.296 176.039 198.789 176.171 199.28 176.383C199.774 176.614 200.261 176.929 200.743 177.329L206.616 182.204L205.296 183.795L199.48 178.968C198.921 178.504 198.382 178.211 197.864 178.09C197.337 177.979 196.825 178.027 196.328 178.233C195.841 178.447 195.369 178.829 194.913 179.379C194.44 179.948 194.144 180.492 194.023 181.01C193.902 181.529 193.948 182.032 194.163 182.519C194.387 183.015 194.778 183.495 195.338 183.959L201.153 188.786L199.844 190.363L193.971 185.488C192.737 184.463 192.07 183.323 191.971 182.068C191.874 180.831 192.378 179.547 193.483 178.217ZM174.546 196.253C175.136 195.849 175.705 195.549 176.255 195.354C176.799 195.149 177.327 195.045 177.842 195.041C178.356 195.038 178.846 195.12 179.31 195.288C179.772 195.473 180.21 195.735 180.624 196.074C181.036 196.43 181.419 196.867 181.773 197.383L186.09 203.678L184.384 204.848L180.11 198.615C179.699 198.015 179.261 197.587 178.795 197.329C178.319 197.078 177.813 196.983 177.279 197.046C176.751 197.119 176.193 197.358 175.604 197.762C174.994 198.18 174.56 198.622 174.302 199.087C174.044 199.553 173.951 200.05 174.024 200.577C174.104 201.115 174.35 201.684 174.761 202.283L179.035 208.516L177.345 209.675L173.029 203.38C172.121 202.057 171.792 200.779 172.04 199.545C172.284 198.328 173.12 197.231 174.546 196.253ZM164.752 207.119L165.45 208.64L162.734 209.887C161.743 210.342 161.091 210.876 160.78 211.488C160.456 212.106 160.499 212.859 160.907 213.747C161.273 214.544 161.781 215.035 162.431 215.219C163.07 215.408 163.867 215.283 164.824 214.844L167.694 213.526L168.385 215.029L165.48 216.363C164.74 216.703 164.046 216.919 163.398 217.009C162.739 217.105 162.134 217.08 161.584 216.932C161.022 216.79 160.523 216.516 160.088 216.109C159.647 215.719 159.277 215.199 158.979 214.55C158.587 213.695 158.448 212.883 158.563 212.113C158.684 211.354 159.055 210.646 159.677 209.988C160.292 209.347 161.158 208.77 162.274 208.257L164.752 207.119ZM164.333 203.236L169.512 214.511L167.65 215.367L162.471 204.091L164.333 203.236ZM150.484 209.156C150.922 209.004 151.287 208.984 151.578 209.095C151.856 209.211 152.066 209.47 152.205 209.872C152.349 210.287 152.342 210.628 152.182 210.895C152.023 211.163 151.73 211.37 151.304 211.518C150.854 211.675 150.484 211.697 150.193 211.586C149.902 211.474 149.685 211.211 149.541 210.797C149.27 210.015 149.584 209.468 150.484 209.156Z" fill="#686868"/>
</svg>
