<svg width="15" height="14" viewBox="0 0 15 14" fill="none" xmlns="http://www.w3.org/2000/svg">
<path d="M6.92664 0.943283C7.2494 -0.0201567 8.65685 -0.0201567 8.97961 0.943283L9.89204 3.663C10.0371 4.09385 10.4515 4.38559 10.9193 4.38559H13.8715C14.9174 4.38559 15.3519 5.68187 14.5062 6.2773L12.1173 7.9582C11.7394 8.22446 11.5811 8.69649 11.7255 9.12733L12.6379 11.8471C12.9607 12.8105 11.8224 13.6117 10.976 13.0163L8.58779 11.3354C8.20916 11.0691 7.69709 11.0691 7.31846 11.3354L4.9303 13.0163C4.08381 13.6117 2.9456 12.8105 3.26836 11.8471L4.1808 9.12733C4.32589 8.69649 4.16683 8.22446 3.78897 7.9582L1.40003 6.2773C0.554319 5.68187 0.988831 4.38559 2.03472 4.38559H4.98694C5.45479 4.38559 5.86989 4.09385 6.01421 3.663L6.92664 0.943283Z" fill="black"/>
</svg>
