<svg width="77" height="77" viewBox="0 0 77 77" fill="none" xmlns="http://www.w3.org/2000/svg">
<g clip-path="url(#paint0_diamond_434_613_clip_path)" data-figma-skip-parse="true"><g transform="matrix(0 0.0385 -0.0385 0 38.5 38.5)"><rect x="0" y="0" width="1025.97" height="1025.97" fill="url(#paint0_diamond_434_613)" opacity="1" shape-rendering="crispEdges"/><rect x="0" y="0" width="1025.97" height="1025.97" transform="scale(1 -1)" fill="url(#paint0_diamond_434_613)" opacity="1" shape-rendering="crispEdges"/><rect x="0" y="0" width="1025.97" height="1025.97" transform="scale(-1 1)" fill="url(#paint0_diamond_434_613)" opacity="1" shape-rendering="crispEdges"/><rect x="0" y="0" width="1025.97" height="1025.97" transform="scale(-1)" fill="url(#paint0_diamond_434_613)" opacity="1" shape-rendering="crispEdges"/></g></g><path d="M38.5 0L39.0717 37.9283L77 38.5L39.0717 39.0717L38.5 77L37.9283 39.0717L0 38.5L37.9283 37.9283L38.5 0Z" data-figma-gradient-fill="{&#34;type&#34;:&#34;GRADIENT_DIAMOND&#34;,&#34;stops&#34;:[{&#34;color&#34;:{&#34;r&#34;:0.0,&#34;g&#34;:0.0,&#34;b&#34;:0.0,&#34;a&#34;:1.0},&#34;position&#34;:0.0},{&#34;color&#34;:{&#34;r&#34;:1.0,&#34;g&#34;:1.0,&#34;b&#34;:1.0,&#34;a&#34;:0.0},&#34;position&#34;:1.0}],&#34;stopsVar&#34;:[{&#34;color&#34;:{&#34;r&#34;:0.0,&#34;g&#34;:0.0,&#34;b&#34;:0.0,&#34;a&#34;:1.0},&#34;position&#34;:0.0},{&#34;color&#34;:{&#34;r&#34;:1.0,&#34;g&#34;:1.0,&#34;b&#34;:1.0,&#34;a&#34;:0.0},&#34;position&#34;:1.0}],&#34;transform&#34;:{&#34;m00&#34;:4.7148903162784472e-15,&#34;m01&#34;:-77.0,&#34;m02&#34;:77.0,&#34;m10&#34;:77.0,&#34;m11&#34;:4.7148903162784472e-15,&#34;m12&#34;:-4.7148903162784472e-15},&#34;opacity&#34;:1.0,&#34;blendMode&#34;:&#34;NORMAL&#34;,&#34;visible&#34;:true}"/>
<defs>
<clipPath id="paint0_diamond_434_613_clip_path"><path d="M38.5 0L39.0717 37.9283L77 38.5L39.0717 39.0717L38.5 77L37.9283 39.0717L0 38.5L37.9283 37.9283L38.5 0Z"/></clipPath><linearGradient id="paint0_diamond_434_613" x1="0" y1="0" x2="500" y2="500" gradientUnits="userSpaceOnUse">
<stop/>
<stop offset="1" stop-color="white" stop-opacity="0"/>
</linearGradient>
</defs>
</svg>
